<svg width="8" height="8" viewBox="0 0 8 8" fill="none" xmlns="http://www.w3.org/2000/svg">
<path d="M4.45894 3.99809L7.90509 0.550611C7.96589 0.48955 7.99999 0.406897 7.99993 0.320757C7.99987 0.234616 7.96566 0.152009 7.90478 0.091029C7.78293 -0.0301391 7.56831 -0.0307509 7.44524 0.091641L4 3.53912L0.553547 0.090723C0.431082 -0.0301391 0.216463 -0.0295271 0.0946111 0.0913349C0.0643661 0.121441 0.0404236 0.157267 0.0241809 0.19672C0.00793812 0.236173 -0.000279564 0.278465 7.25726e-06 0.321126C7.25726e-06 0.408024 0.033685 0.489415 0.0946111 0.549693L3.54076 3.99778L0.0949172 7.44617C0.0341091 7.50733 5.59499e-05 7.59009 0.000228139 7.67631C0.000400327 7.76252 0.0347839 7.84515 0.0958358 7.90606C0.154925 7.9645 0.238507 7.99816 0.324844 7.99816H0.326681C0.413325 7.99786 0.496907 7.96389 0.554771 7.90484L4 4.45736L7.44646 7.90576C7.50739 7.96634 7.58883 8 7.67516 8C7.71785 8.00012 7.76015 7.9918 7.79962 7.97553C7.83908 7.95926 7.87494 7.93535 7.90513 7.90518C7.93531 7.87501 7.95924 7.83918 7.97552 7.79973C7.9918 7.76029 8.00012 7.71802 8 7.67535C8 7.58876 7.96632 7.50706 7.90509 7.44679L4.45894 3.99809Z" fill="white"/>
</svg>
