<svg width="12" height="10" viewBox="0 0 12 10" fill="none" xmlns="http://www.w3.org/2000/svg">
<path d="M11.9994 1.18711C11.55 1.39087 11.0734 1.52468 10.5854 1.58413C11.0997 1.26883 11.4847 0.772599 11.6686 0.187921C11.1858 0.482368 10.6566 0.688722 10.105 0.800346C9.73446 0.394021 9.24334 0.124544 8.70798 0.03381C8.17262 -0.0569246 7.623 0.0361669 7.14458 0.298612C6.66616 0.561057 6.28575 0.978151 6.06247 1.48505C5.83919 1.99195 5.78557 2.56026 5.90993 3.10162C4.93099 3.05133 3.97331 2.79059 3.09907 2.33634C2.22483 1.88208 1.45357 1.24446 0.835361 0.46487C0.616537 0.850095 0.501543 1.28801 0.502159 1.73377C0.502159 2.60866 0.936617 3.38158 1.59714 3.83411C1.20625 3.8215 0.823959 3.71331 0.482143 3.51855V3.54992C0.482261 4.1326 0.678985 4.69731 1.03896 5.1483C1.39894 5.59929 1.90001 5.9088 2.45722 6.02436C2.09436 6.12515 1.71388 6.14 1.34458 6.06781C1.50169 6.56935 1.80789 7.00798 2.22032 7.32229C2.63276 7.63659 3.13077 7.81083 3.64462 7.82061C3.13392 8.2317 2.54916 8.5356 1.92379 8.71491C1.29842 8.89423 0.644698 8.94545 0 8.86565C1.12541 9.60746 2.4355 10.0013 3.77355 10C8.30239 10 10.779 6.15469 10.779 2.81984C10.779 2.71123 10.7761 2.60142 10.7714 2.49402C11.2535 2.13692 11.6695 1.69456 12 1.18771L11.9994 1.18711Z" fill="black"/>
</svg>
